<svg width="49" height="52" viewBox="0 0 49 52" fill="none" xmlns="http://www.w3.org/2000/svg">
<path opacity="0.8" d="M2.88898 6.67504C3.53605 2.82203 6.87153 0 10.7785 0H39.3193C44.3421 0 48.1224 4.57448 47.1761 9.50729L41.3862 39.6868C40.2846 45.4291 33.5958 48.0883 28.8523 44.6698L4.03632 26.7863C1.56491 25.0053 0.319468 21.9753 0.823993 18.9711L2.88898 6.67504Z" fill="#13D726"/>
<path d="M13.3268 1.87749C16.2918 1.0433 19.0475 3.73259 18.2859 6.71706L16.4283 13.9962C15.6509 17.0426 11.8243 18.0425 9.65598 15.7657L4.58106 10.437C2.50241 8.25446 3.49288 4.64422 6.39429 3.82792L13.3268 1.87749Z" fill="#13D726"/>
</svg>
