<svg width="49" height="52" viewBox="0 0 49 52" fill="none" xmlns="http://www.w3.org/2000/svg">
<path opacity="0.8" d="M2.88898 6.67504C3.53605 2.82203 6.87153 0 10.7785 0H39.3193C44.3421 0 48.1224 4.57448 47.1761 9.50729L41.3862 39.6868C40.2846 45.4291 33.5958 48.0883 28.8523 44.6698L4.03632 26.7863C1.56491 25.0053 0.319468 21.9753 0.823993 18.9711L2.88898 6.67504Z" fill="#13D726"/>
<path d="M13.3268 1.87749C16.2918 1.0433 19.0475 3.73259 18.2859 6.71706L16.4283 13.9962C15.6509 17.0426 11.8243 18.0425 9.65598 15.7657L4.58106 10.437C2.50241 8.25446 3.49288 4.64422 6.39429 3.82792L13.3268 1.87749Z" fill="#13D726"/>
<path d="M31.9429 17.0298L31.9429 17.0298C32.6637 17.7791 32.6892 19.0375 31.9954 19.8215C31.9953 19.8215 31.9953 19.8215 31.9953 19.8215L18.6369 34.9134C18.2863 35.3094 17.8278 35.5 17.3771 35.5C16.95 35.5 16.5155 35.3292 16.1704 34.9704L16.1704 34.9703C15.4496 34.221 15.4241 32.9626 16.1179 32.1786C16.118 32.1786 16.118 32.1786 16.118 32.1786L29.4764 17.0866L29.4765 17.0866C30.1498 16.3257 31.2441 16.3032 31.9429 17.0298ZM17.8302 16.5C19.08 16.5 20.1604 17.6109 20.1604 19.0675C20.1604 20.5241 19.08 21.635 17.8302 21.635C16.5804 21.635 15.5 20.5241 15.5 19.0675C15.5 17.6109 16.5804 16.5 17.8302 16.5ZM30.1698 35.5C28.92 35.5 27.8396 34.3892 27.8396 32.9325C27.8396 31.4759 28.92 30.365 30.1698 30.365C31.4196 30.365 32.5 31.4759 32.5 32.9325C32.5 34.3892 31.4196 35.5 30.1698 35.5Z" stroke="white"/>
</svg>
