<svg width="49" height="154" viewBox="0 0 49 154" fill="none" xmlns="http://www.w3.org/2000/svg">
<path opacity="0.8" d="M2.88898 108.675C3.53605 104.822 6.87153 102 10.7785 102H39.3193C44.3421 102 48.1224 106.574 47.1761 111.507L41.3862 141.687C40.2846 147.429 33.5958 150.088 28.8523 146.67L4.03632 128.786C1.56491 127.005 0.319468 123.975 0.823993 120.971L2.88898 108.675Z" fill="#13D726"/>
<path d="M13.3268 103.877C16.2918 103.043 19.0475 105.733 18.2859 108.717L16.4283 115.996C15.6509 119.043 11.8243 120.042 9.65598 117.766L4.58106 112.437C2.50241 110.254 3.49288 106.644 6.39429 105.828L13.3268 103.877Z" fill="#13D726"/>
<path d="M31.99 0.979859L31.99 0.979839C31.2745 0.404575 30.1121 0.427285 29.431 1.02237L29.431 1.02241L16.0725 12.6915C16.0725 12.6915 16.0725 12.6915 16.0725 12.6915C15.7442 12.9783 15.6055 13.3282 15.6136 13.6555C15.6217 13.9832 15.7782 14.3306 16.1233 14.608L16.1233 14.608C16.4628 14.881 16.9129 15.0258 17.3771 15.0258C17.8678 15.0258 18.3405 14.8639 18.6823 14.5654L31.99 0.979859ZM31.99 0.979859C32.3351 1.25725 32.4916 1.60462 32.4997 1.93234C32.5078 2.25962 32.3691 2.60954 32.0408 2.89635C32.0408 2.89635 32.0408 2.89636 32.0408 2.89637L18.6824 14.5654L31.99 0.979859ZM17.8302 0.56192C19.2035 0.56192 20.1604 1.47907 20.1604 2.43368C20.1604 3.38829 19.2035 4.30545 17.8302 4.30545C16.4569 4.30545 15.5 3.38829 15.5 2.43368C15.5 1.47907 16.4569 0.56192 17.8302 0.56192ZM30.1698 15.0258C28.7965 15.0258 27.8396 14.1087 27.8396 13.1541C27.8396 12.1994 28.7965 11.2823 30.1698 11.2823C31.5431 11.2823 32.5 12.1994 32.5 13.1541C32.5 14.1087 31.5431 15.0258 30.1698 15.0258Z" stroke="white"/>
</svg>
