<svg width="20" height="20" viewBox="0 0 20 20" fill="none" xmlns="http://www.w3.org/2000/svg">
<path d="M10 2.5C5.86438 2.5 2.5 5.86438 2.5 10C2.5 14.1356 5.86438 17.5 10 17.5C14.1356 17.5 17.5 14.1356 17.5 10C17.5 5.86438 14.1356 2.5 10 2.5ZM10 3.75C13.4594 3.75 16.25 6.54063 16.25 10C16.25 13.4594 13.4594 16.25 10 16.25C6.54063 16.25 3.75 13.4594 3.75 10C3.75 6.54063 6.54063 3.75 10 3.75Z" fill="#444444"/>
<path d="M10 2.5C5.86438 2.5 2.5 5.86438 2.5 10C2.5 14.1356 5.86438 17.5 10 17.5C14.1356 17.5 17.5 14.1356 17.5 10C17.5 5.86438 14.1356 2.5 10 2.5ZM10 3.75C13.4594 3.75 16.25 6.54063 16.25 10C16.25 13.4594 13.4594 16.25 10 16.25C6.54063 16.25 3.75 13.4594 3.75 10C3.75 6.54063 6.54063 3.75 10 3.75Z" fill="#0461D1"/>
<path d="M10 5.5C7.51863 5.5 5.5 7.51863 5.5 10C5.5 12.4814 7.51863 14.5 10 14.5C12.4814 14.5 14.5 12.4814 14.5 10C14.5 7.51863 12.4814 5.5 10 5.5Z" fill="#0461D1"/>
</svg>
